<?xml version="1.0" encoding="UTF-8" standalone="no"?>
<!DOCTYPE svg PUBLIC "-//W3C//DTD SVG 1.1//EN" "http://www.w3.org/Graphics/SVG/1.1/DTD/svg11.dtd">
<svg xmlns="http://www.w3.org/2000/svg">
<metadata>
This is a custom SVG webfont generated by Font Squirrel.
Copyright   : Copyright  1988 1990 1993 2003 Linotype Library GmbH wwwlinotypecom All rights reserved Copyright  1988 1990 1993 Adobe Systems Incorporated All Rights Reserved
Designer    : Linotype Library GmbH
Foundry     : Linotype Library GmbH
Foundry URL : httpwwwLinotypecom
</metadata>
<defs>
<font id="webfontdEQQX7sm" horiz-adv-x="1138">
<font-face units-per-em="2048" ascent="1462" descent="-586"/>
<missing-glyph horiz-adv-x="569"/>
<glyph unicode=" " horiz-adv-x="569"/>
<glyph unicode="	" horiz-adv-x="569"/>
<glyph unicode=" " horiz-adv-x="569"/>
<glyph unicode="!" horiz-adv-x="530" d="M317 0h-104v211h104v-211zM217 1462h98v-493l-24 -594h-49l-25 594v493z"/>
<glyph unicode="&quot;" horiz-adv-x="645" d="M403 993v469h78v-469h-78zM164 993v469h78v-469h-78z"/>
<glyph unicode="#" d="M428 895l-49 -354h346l49 354h-346zM848 1413h67l-63 -450h225v-68h-235l-49 -354h227v-68h-238l-65 -473h-68l66 473h-346l-66 -473h-67l65 473h-240v68h250l49 354h-241v68h252l63 450h68l-64 -450h346z"/>
<glyph unicode="$" d="M528 -215v180q-242 20 -372.5 142t-130.5 374h77q0 -197 108.5 -311.5t317.5 -126.5v682l-96 23q-76 16 -132 38.5t-112.5 61.5t-87 104.5t-30.5 155.5q0 39 5 76t31.5 95t71.5 101t136.5 78t213.5 39v100h66v-100q461 -10 475 -450h-78q-12 195 -112.5 282.5 t-284.5 91.5v-635l160 -38q350 -84 350 -373q0 -209 -146.5 -306.5t-363.5 -103.5v-180h-66zM528 805v614q-197 -8 -289 -91t-92 -220q0 -131 76 -190.5t221 -94.5zM594 711v-668q190 0 311 82t121 250q0 117 -73.5 190.5t-233.5 114.5z"/>
<glyph unicode="%" horiz-adv-x="1593" d="M420 776q119 0 191.5 88t72.5 207q0 125 -69.5 212t-192.5 87t-192.5 -87t-69.5 -212q0 -117 72.5 -206t187.5 -89zM421.5 709q-151.5 0 -245.5 104.5t-94 257.5q0 158 93 262.5t249 104.5q158 0 248 -102.5t90 -264.5q0 -152 -94.5 -257t-246 -105zM1169 43 q119 0 192 88t73 207q0 125 -70 212t-192.5 87t-192.5 -87t-70 -212q0 -117 72.5 -206t187.5 -89zM1171.5 -25q-151.5 0 -246 104.5t-94.5 258.5q0 158 93.5 262.5t249.5 104.5q158 0 247.5 -102.5t89.5 -264.5q0 -152 -94 -257.5t-245.5 -105.5zM283 -49l952 1511h82 l-952 -1511h-82z"/>
<glyph unicode="&amp;" horiz-adv-x="1214" d="M1116 0l-178 217q-70 -115 -177.5 -178.5t-238.5 -63.5q-190 0 -312 97.5t-122 275.5q0 45 11.5 86t23.5 72t43 65l48 56q17 20 61 52l62 44q17 12 68.5 44t63.5 40q-6 8 -44 54l-49 61q-11 14 -39 56t-37 67.5t-19.5 64.5t-10.5 76q0 109 93.5 180.5t214.5 71.5 q127 0 217 -67.5t90 -184.5q0 -43 -8.5 -81t-29 -72t-36.5 -57.5t-52 -54t-54 -44.5l-64 -48l-59 -43l348 -428q49 121 49 244h78q-8 -158 -74 -309l238 -293h-105zM887 281l-377 469q-8 -6 -56 -36l-63 -39q-14 -9 -55 -39t-56 -46l-43 -48q-28 -32 -39.5 -58.5 t-21.5 -62.5t-10 -73q0 -137 107.5 -221t248.5 -84q70 0 132.5 23.5t103.5 57.5t71.5 68.5t44 59.5t13.5 29zM537 844q80 51 127 87t95 106.5t48 148.5t-70.5 131t-159 53t-159 -53t-70.5 -131q0 -63 29 -120.5t88.5 -129.5t71.5 -92z"/>
<glyph unicode="'" horiz-adv-x="417" d="M170 993v469h78v-469h-78z"/>
<glyph unicode="(" horiz-adv-x="493" d="M467 -377h-70q-264 434 -264 922q0 500 268 952h72q-262 -440 -262 -952q0 -504 256 -922z"/>
<glyph unicode=")" horiz-adv-x="493" d="M27 1497h69q264 -434 264 -922q0 -500 -268 -952h-72q262 440 263 952q0 504 -256 922z"/>
<glyph unicode="*" horiz-adv-x="720" d="M330 1462h59v-266l250 84l20 -57l-251 -84l155 -209l-45 -41l-158 217l-163 -217l-50 41l166 209l-254 84l19 57l252 -84v266z"/>
<glyph unicode="+" horiz-adv-x="1228" d="M575 555v477h78v-477h477v-78h-477v-477h-78v477h-477v78h477z"/>
<glyph unicode="," horiz-adv-x="569" d="M205 -258v68q70 31 69 190h-43v211h105v-211q0 -207 -131 -258z"/>
<glyph unicode="-" horiz-adv-x="720" d="M580 518h-439v78h439v-78z"/>
<glyph unicode="." horiz-adv-x="569" d="M336 0h-105v211h105v-211z"/>
<glyph unicode="/" horiz-adv-x="681" d="M57 -35h-84l652 1532h84z"/>
<glyph unicode="0" d="M569 43q125 0 215 61.5t135.5 166t65 211t19.5 225t-19.5 225t-65 211t-135.5 166t-215 61.5t-215 -61.5t-135 -166t-64.5 -211t-19.5 -225t19.5 -225t64.5 -211t135 -166t215 -61.5zM569.5 -25q-116.5 0 -209 44t-147.5 115t-92 169t-50.5 196.5t-13.5 207t13.5 207 t50.5 196.5t92 169t147.5 115t209 44t208.5 -44t147.5 -115t92.5 -169t50 -196.5t13 -207t-13 -207t-50 -196.5t-92.5 -169t-147.5 -115t-208.5 -44z"/>
<glyph unicode="1" d="M678 1413v-1413h-78v1262q-147 -158 -379 -181v68q256 39 387 264h70z"/>
<glyph unicode="2" d="M193 78h843v-78h-942q6 94 42 174t106.5 149.5t128 113.5t155.5 110q92 61 125 84.5t103.5 82t99.5 99.5t55.5 105.5t26.5 134.5q0 139 -102.5 228t-245.5 89q-184 0 -282.5 -121t-98.5 -313h-78q25 502 446 502q190 0 314.5 -99.5t124.5 -287.5q0 -117 -58.5 -219.5 t-147.5 -174t-194 -145.5l-194 -134q-90 -60 -154.5 -139t-72.5 -161z"/>
<glyph unicode="3" d="M74 467h78q-8 -197 103.5 -310.5t307.5 -113.5q166 0 286 93t120 255q0 186 -137.5 263t-337.5 63v67q115 -6 209 16.5t163.5 94.5t69.5 186q0 139 -113.5 214t-259.5 75q-178 0 -273 -109.5t-104 -293.5h-77q0 211 123.5 341t330.5 130q188 0 319.5 -90.5t131.5 -266.5 q0 -127 -76 -217t-201 -106v-4q141 -16 225.5 -116.5t84.5 -246.5q0 -201 -137.5 -308.5t-346.5 -107.5q-236 0 -368.5 129.5t-120.5 362.5z"/>
<glyph unicode="4" d="M748 428v879h-5l-606 -879h611zM748 1413h77v-985h238v-68h-238v-360h-77v360h-689v78z"/>
<glyph unicode="5" d="M119 682l147 731h715v-67h-653l-121 -564l4 -4q121 170 350 170q209 0 344 -135t135 -346q0 -213 -134 -352.5t-345 -139.5t-354.5 125t-130.5 332h78q-4 -172 114.5 -280.5t292.5 -108.5q176 0 289 123t113 301q0 174 -115 294t-287 120q-225 0 -362 -199h-80z"/>
<glyph unicode="6" d="M1038 1065h-77q-25 137 -121.5 221t-233.5 84q-94 0 -167.5 -33.5t-120 -95t-79 -133.5t-48 -160t-21.5 -160.5t-6 -152.5l4 -4q45 135 163 219t259 84q207 0 340 -137.5t133 -345.5q0 -205 -134 -340.5t-339 -135.5q-115 0 -203 36t-144.5 97.5t-92 147.5t-50 179 t-14.5 202q0 115 11.5 217t46 213t90 189.5t151.5 130t221 51.5q180 0 296 -97.5t136 -275.5zM590 43q168 0 281.5 120t113.5 288q0 170 -113.5 292.5t-281.5 122.5q-172 0 -286 -120.5t-114 -295t116 -291t284 -116.5z"/>
<glyph unicode="7" d="M115 1346v67h911v-78q-102 -115 -167.5 -195.5t-147.5 -208.5t-133.5 -253t-96.5 -300t-63 -378h-90q18 231 65 416.5t185.5 433.5t369.5 496h-833z"/>
<glyph unicode="8" d="M928 1083q0 150 -101.5 218.5t-257 68.5t-257 -68.5t-101.5 -218.5q0 -141 103.5 -210.5t255 -69.5t255 69.5t103.5 210.5zM133 1083q0 184 125 269.5t311.5 85.5t311.5 -85t125 -270q0 -121 -67 -202.5t-194 -106.5v-4q145 -16 229.5 -114.5t84.5 -249.5 q0 -211 -137.5 -321t-352.5 -110t-352 110t-137 321q0 152 84 250t229 114v4q-127 25 -193.5 106.5t-66.5 202.5zM981 406q0 166 -115.5 247.5t-296 81.5t-296 -82t-115.5 -247q0 -178 116.5 -270.5t294.5 -92.5q176 0 294 92.5t118 270.5z"/>
<glyph unicode="9" d="M113 348h77q25 -137 119 -221t236 -84q111 0 194.5 51t128.5 127t74 179.5t37 187.5t8 174l-4 4q-49 -127 -152.5 -207t-259.5 -80q-213 0 -345 135.5t-132 348.5q0 209 134 342t343 133q494 0 494 -662q0 -115 -11.5 -217t-46 -212.5t-90 -189.5t-151.5 -130.5 t-221 -51.5q-180 0 -296 97.5t-136 275.5zM571 547q172 0 286 120.5t114 295.5q0 170 -115 288.5t-285 118.5q-168 0 -283.5 -120t-115.5 -287q0 -170 115.5 -293t283.5 -123z"/>
<glyph unicode=":" horiz-adv-x="569" d="M336 0h-105v211h105v-211zM231 1053h105v-211h-105v211z"/>
<glyph unicode=";" horiz-adv-x="569" d="M231 1053h105v-211h-105v211zM205 -258v68q70 31 69 190h-43v211h105v-211q0 -207 -131 -258z"/>
<glyph unicode="&lt;" horiz-adv-x="1228" d="M1135 1053v-86l-973 -447l973 -450v-86l-1041 483v106z"/>
<glyph unicode="=" horiz-adv-x="1228" d="M1130 358v-77h-1032v77h1032zM1130 756v-78h-1032v78h1032z"/>
<glyph unicode="&gt;" horiz-adv-x="1228" d="M94 -16v86l973 446l-973 451v86l1041 -484v-106z"/>
<glyph unicode="?" horiz-adv-x="1062" d="M473 0v211h105v-211h-105zM166 1010h-78q0 223 119 355t336 132q174 0 287.5 -94t113.5 -273q0 -82 -29.5 -150.5t-60.5 -104t-92 -93.5q-51 -45 -72.5 -67.5t-59.5 -74.5t-53.5 -117.5t-15.5 -151.5h-78q0 150 46 243t135 177q63 59 100 100t69.5 106.5t32.5 132.5 q0 143 -95 216t-234 73q-178 0 -274.5 -112.5t-96.5 -296.5z"/>
<glyph unicode="@" horiz-adv-x="1638" d="M1247 1147l-196 -606q-33 -98 -33 -123q0 -31 23.5 -50.5t56.5 -19.5q137 0 252.5 170t115.5 348q0 246 -186 405t-426 159q-281 0 -481.5 -209t-200.5 -498q0 -293 210 -491.5t476 -198.5q168 0 318.5 84t244.5 227h90q-92 -174 -272 -276.5t-381 -102.5 q-324 0 -544 224.5t-220 547.5q0 313 223.5 536.5t532.5 223.5q293 0 493.5 -181t200.5 -456q0 -225 -151.5 -407.5t-317.5 -182.5q-57 0 -95 38t-40 108h-4q-98 -145 -274 -146q-115 0 -189 90.5t-74 217.5q0 225 140.5 417.5t343.5 192.5q94 0 155.5 -54.5t73.5 -132.5h4 l47 146h84zM870 1120q-109 0 -203 -90t-142 -211t-48 -231q0 -113 59.5 -181.5t151.5 -68.5q57 0 121.5 45t116.5 117q57 84 95 190.5t38 188.5q0 37 -6 70.5t-23.5 76.5t-59 68.5t-100.5 25.5z"/>
<glyph unicode="A" horiz-adv-x="1214" d="M287 547h643l-314 827h-4zM563 1462h99l577 -1462h-96l-185 469h-700l-186 -469h-97z"/>
<glyph unicode="B" horiz-adv-x="1290" d="M219 1384v-585h496q180 0 275 81t95 220q0 150 -104 217t-266 67h-496zM129 0v1462h586q242 0 351.5 -108.5t109.5 -270.5q0 -119 -79 -207t-206 -104l4 -4q14 2 49 -6t84 -32.5t92 -63.5t74 -105.5t31 -150.5q0 -197 -138.5 -303.5t-371.5 -106.5h-586zM219 721v-643 h496q199 0 309.5 85t110.5 247q0 90 -38 154.5t-102.5 96t-133 46t-146.5 14.5h-496z"/>
<glyph unicode="C" horiz-adv-x="1441" d="M1358 1026h-90q-29 180 -169.5 286.5t-328.5 106.5q-279 0 -442.5 -197.5t-163.5 -490.5t164 -490.5t442 -197.5q209 0 359.5 157.5t162.5 368.5h90q-25 -262 -197.5 -433t-414.5 -171q-319 0 -507.5 217t-188.5 549t188.5 549t507.5 217q145 0 259 -48t172.5 -111.5 t97 -137.5t49 -117t10.5 -57z"/>
<glyph unicode="D" horiz-adv-x="1366" d="M129 0v1462h479q152 0 270.5 -41t194.5 -108.5t124 -163.5t67.5 -197.5t19.5 -218.5q0 -330 -171 -531.5t-509 -201.5h-475zM219 1384v-1306h393q86 0 165 19.5t157 66.5t134 119.5t91 188.5t35 261q0 170 -43 296t-104.5 192.5t-149.5 105.5t-155.5 48t-147.5 9h-375z "/>
<glyph unicode="E" horiz-adv-x="1146" d="M219 78h903v-78h-993v1462h983v-78h-893v-585h840v-78h-840v-643z"/>
<glyph unicode="F" horiz-adv-x="1052" d="M965 721h-746v-721h-90v1462h918v-78h-828v-585h746v-78z"/>
<glyph unicode="G" horiz-adv-x="1517" d="M782 717h617v-717h-78v311h-4q-53 -158 -206 -252t-347 -94q-322 0 -505 215t-183 543q0 326 186.5 550t503.5 224q231 0 401 -132t207 -355h-86q-51 193 -186 301t-334 108q-283 0 -442.5 -202.5t-159.5 -493.5q0 -293 156.5 -486.5t445.5 -193.5q262 0 414 164 q140 152 140 392q0 20 -1 40h-539v78z"/>
<glyph unicode="H" horiz-adv-x="1372" d="M1153 721h-934v-721h-90v1462h90v-663h934v663h90v-1462h-90v721z"/>
<glyph unicode="I" horiz-adv-x="348" d="M129 0v1462h90v-1462h-90z"/>
<glyph unicode="J" horiz-adv-x="985" d="M41 465h90q-2 -36 -2 -69q0 -49 5 -90q9 -69 40 -132t99.5 -97t170.5 -34q53 0 96.5 8t75 20.5t56 37t40 43t27 54.5t16.5 58.5t8 65.5t3 64v67v24v977h90v-1007q0 -55 -1 -83t-8 -88.5t-20.5 -95t-43 -83t-70.5 -75t-107.5 -46t-150.5 -19.5q-113 0 -194 33t-123 78 t-64.5 119.5t-27.5 131t-5 138.5z"/>
<glyph unicode="K" horiz-adv-x="1255" d="M129 0v1462h90v-841l920 841h116l-667 -608l708 -854h-112l-662 793l-303 -277v-516h-90z"/>
<glyph unicode="L" horiz-adv-x="1024" d="M129 0v1462h90v-1384h830v-78h-920z"/>
<glyph unicode="M" horiz-adv-x="1656" d="M129 0v1462h129l571 -1362h5l565 1362h129v-1462h-90v1352h-4l-557 -1352h-91l-563 1352h-4v-1352h-90z"/>
<glyph unicode="N" horiz-adv-x="1388" d="M129 0v1462h113l923 -1341h4v1341h91v-1462h-107l-930 1352h-4v-1352h-90z"/>
<glyph unicode="O" horiz-adv-x="1517" d="M154 731q0 -293 163.5 -490.5t442.5 -197.5q276 0 440 197.5t164 490.5t-164 490.5t-440 197.5q-279 0 -442.5 -197.5t-163.5 -490.5zM1454 731q0 -330 -187.5 -548t-507 -218t-508 217t-188.5 549t188.5 549t508 217t507 -218t187.5 -548z"/>
<glyph unicode="P" horiz-adv-x="1210" d="M129 0v1462h623q57 0 108 -8t111.5 -34.5t104.5 -69.5t73 -120t29 -177q0 -193 -120 -297.5t-339 -104.5h-500v-651h-90zM219 1384v-655h514q182 0 268 97.5t86 228.5q0 49 -13 98t-47 105.5t-106.5 91t-175.5 34.5h-526z"/>
<glyph unicode="Q" horiz-adv-x="1517" d="M1415 -76l-241 174q-170 -133 -414 -133q-319 0 -508 217t-189 549t188.5 549t508 217t507 -218t187.5 -548q0 -367 -219 -579l227 -164zM928 373l235 -170q201 197 201 528q0 293 -164 490.5t-440 197.5q-279 0 -442.5 -197.5t-163.5 -490.5t163.5 -490.5t442.5 -197.5 q203 0 342 109l-221 157z"/>
<glyph unicode="R" horiz-adv-x="1290" d="M129 0v1462h610q211 0 337 -89t126 -288q0 -150 -83 -250t-230 -124v-4q96 -12 157.5 -51.5t89 -106t36 -125.5t8.5 -145q0 -80 1 -115t11 -86t31 -78h-101q-25 45 -31 119q-5 47 -5 92q0 26 1 52l2 41q0 51 -8 105q-10 75 -37.5 130t-104.5 91t-200 36h-520v-666h-90z M219 743h520q170 0 271.5 83t101.5 253q0 156 -105.5 230.5t-267.5 74.5h-520v-641z"/>
<glyph unicode="S" horiz-adv-x="1290" d="M1174 1044h-91q-8 182 -134 278.5t-335 96.5q-68 0 -133 -15t-127.5 -49t-101.5 -97.5t-39 -149.5q0 -66 26.5 -116t70.5 -81.5t106.5 -55.5t127 -39t142.5 -30q16 -2 25 -4q88 -18 149.5 -33.5t133 -47t114.5 -71.5t72.5 -105.5t29.5 -147.5q0 -109 -48 -192t-126 -129 t-164 -68.5t-176 -22.5q-279 0 -449 126q-167 123 -167 380v12h90q-1 -15 -1 -30q0 -134 67 -225q74 -101 190.5 -143t269.5 -42q72 0 141.5 17.5t135 53.5t106.5 104.5t41 158.5q0 51 -16.5 94t-38 72.5t-65.5 56.5t-76.5 41t-96 31.5t-98.5 24.5l-108 22 q-90 18 -148.5 32.5t-132.5 45t-116 68.5t-71.5 100.5t-29.5 142.5q0 195 147.5 292t343.5 97q244 0 396 -112t164 -341z"/>
<glyph unicode="T" horiz-adv-x="1062" d="M485 1384h-514v78h1121v-78h-517v-1384h-90v1384z"/>
<glyph unicode="U" horiz-adv-x="1376" d="M129 1462h90v-876q0 -66 6 -125.5t34 -140t74 -138t135 -98.5t210 -41q258 0 368.5 139.5t110.5 403.5v876h90v-876q0 -621 -569 -621q-549 0 -549 621v876z"/>
<glyph unicode="V" d="M66 1462l501 -1384h4l506 1384h90l-546 -1462h-105l-545 1462h95z"/>
<glyph unicode="W" horiz-adv-x="1820" d="M410 0l-422 1462h92l381 -1366h4l387 1366h113l393 -1366h4l375 1366h96l-420 -1462h-102l-402 1384h-4l-395 -1384h-100z"/>
<glyph unicode="X" d="M514 752l-512 710h104l463 -643l473 643h103l-516 -710l545 -752h-109l-496 684l-497 -684h-107z"/>
<glyph unicode="Y" horiz-adv-x="1175" d="M588 688l530 774h101l-588 -850v-612h-90v612l-584 850h102z"/>
<glyph unicode="Z" horiz-adv-x="1099" d="M57 1384v78h1026v-78l-991 -1306h1010v-78h-1104v78l987 1306h-928z"/>
<glyph unicode="[" horiz-adv-x="493" d="M473 1430h-203v-1739h203v-68h-280v1874h280v-67z"/>
<glyph unicode="\" horiz-adv-x="681" d="M709 -35h-84l-652 1532h84z"/>
<glyph unicode="]" horiz-adv-x="493" d="M20 -309h203v1739h-203v67h281v-1874h-281v68z"/>
<glyph unicode="^" horiz-adv-x="1228" d="M1149 485h-86l-447 861l-450 -861h-86l483 928h107z"/>
<glyph unicode="_" horiz-adv-x="1024" d="M1024 -256h-1024v102h1024v-102z"/>
<glyph unicode="`" horiz-adv-x="342" d="M289 1208h-76l-274 287h104z"/>
<glyph unicode="a" horiz-adv-x="1024" d="M891 803v-608q0 -33 1 -47.5t7 -37t21.5 -32.5t40.5 -10q20 0 57 6v-66q-31 -8 -64 -8q-84 0 -112.5 39t-28.5 115v55h-4q-39 -100 -142.5 -167t-248.5 -67q-352 0 -352 297q0 88 33.5 149.5t96 93.5t121 46t136.5 23q111 6 172 15t104 21.5t59.5 40t21.5 55t5 87.5 q0 23 -13.5 53.5t-42 67.5t-91 61.5t-146.5 24.5q-143 0 -229 -73t-94 -208h-78q8 172 110.5 260t290.5 88q369 0 369 -274zM813 401v197q-27 -33 -81 -47t-157.5 -21.5t-142.5 -13.5q-145 -18 -217 -73.5t-72 -170.5q0 -102 71 -165.5t206 -63.5q100 0 176 33t116 77 t64.5 99t30.5 89.5t6 59.5z"/>
<glyph unicode="b" d="M133 0v1462h78v-633h4q43 119 153.5 183.5t245.5 64.5q223 0 340 -147.5t117 -378.5q0 -143 -35 -252t-84 -168t-115.5 -96t-118.5 -48.5t-104 -11.5q-96 0 -175 32t-124 79t-68.5 84t-31.5 66h-4v-236h-78zM614 43q131 0 220.5 79t124 188.5t34.5 240.5 q0 188 -100 323.5t-279 135.5q-197 0 -299 -126t-102 -333q0 -213 100 -360.5t301 -147.5z"/>
<glyph unicode="c" horiz-adv-x="1062" d="M985 727h-78q-12 135 -110.5 209t-245.5 74q-186 0 -296 -140.5t-110 -332.5q0 -223 104.5 -358.5t301.5 -135.5q145 0 245.5 91t121.5 237h77q-25 -184 -147.5 -290t-296.5 -106q-242 0 -362.5 160t-120.5 402q0 231 129 385.5t354 154.5q178 0 298 -89t136 -261z"/>
<glyph unicode="d" d="M928 0v225h-4q-133 -250 -404 -250q-225 0 -339.5 157t-114.5 392q0 246 119.5 399.5t349.5 153.5q133 0 240.5 -69.5t148.5 -190.5h4v645h78v-1462h-78zM537 43q188 0 288.5 141.5t100.5 339.5q0 201 -100.5 343.5t-290.5 142.5q-197 0 -294.5 -138.5t-97.5 -347.5 q0 -201 102 -341t292 -140z"/>
<glyph unicode="e" horiz-adv-x="1062" d="M145 584h773q-4 176 -108.5 301t-277.5 125q-166 0 -269.5 -128t-117.5 -298zM995 516h-850v-15q0 -187 99 -320q102 -138 288 -138q150 0 249.5 83t127.5 230h78q-31 -184 -147.5 -282.5t-307.5 -98.5q-221 0 -345 153q-120 148 -120 365v14.5v15.5q0 224 118 386 q122 168 347 168q236 0 356 -161q109 -146 108 -356q0 -22 -1 -44z"/>
<glyph unicode="f" horiz-adv-x="493" d="M188 985h-188v68h188v217q0 104 65.5 156.5t166.5 52.5q35 0 92 -11v-67q-57 10 -92 10q-154 0 -154 -147v-211h219v-68h-219v-985h-78v985z"/>
<glyph unicode="g" horiz-adv-x="1099" d="M907 1053h78v-998q0 -31 -1 -53t-10 -74.5t-24.5 -92.5t-49.5 -89t-80 -80t-121 -51q-62 -17 -138 -17q-15 0 -31 1q-397 0 -411 327h78q12 -133 104 -196.5t231 -63.5q104 0 180 34t112 76t56.5 102.5t23.5 92t3 66.5v242h-4q-113 -240 -381 -240q-223 0 -338.5 144.5 t-115.5 375.5q0 219 120.5 368.5t333.5 149.5q127 0 232.5 -64.5t148.5 -178.5h4v219zM522 1010q-180 0 -278.5 -134.5t-98.5 -316.5q0 -195 99.5 -324t277.5 -129q182 0 282.5 131.5t100.5 322t-100.5 320.5t-282.5 130z"/>
<glyph unicode="h" horiz-adv-x="1062" d="M115 1462h78v-635h4q41 117 145 183.5t231 66.5q88 0 156 -21.5t106.5 -61.5t63.5 -80t35 -97t12 -89t2 -77v-651h-78v666q0 344 -299 344q-176 0 -277 -122t-101 -319v-569h-78v1462z"/>
<glyph unicode="i" horiz-adv-x="344" d="M211 1251h-78v211h78v-211zM211 0h-78v1053h78v-1053z"/>
<glyph unicode="j" horiz-adv-x="344" d="M211 1251h-78v211h78v-211zM133 1053h78v-1166q0 -123 -45 -193.5t-170 -70.5h-33q-23 0 -33 2v68q29 -4 52 -4q84 0 117.5 44t33.5 161v1159z"/>
<glyph unicode="k" horiz-adv-x="948" d="M119 0v1462h78v-968l649 559h112l-460 -394l493 -659h-106l-449 600l-239 -203v-397h-78z"/>
<glyph unicode="l" horiz-adv-x="344" d="M133 1462h78v-1462h-78v1462z"/>
<glyph unicode="m" horiz-adv-x="1630" d="M117 0v1053h78v-215h4q25 100 119 169.5t210 69.5q139 0 219 -65.5t99 -157.5h4q49 113 129 168t205 55q150 0 239.5 -90t89.5 -268v-719h-77v721q0 94 -30 157.5t-76 89t-79.5 34t-66.5 8.5q-147 0 -238.5 -101.5t-91.5 -285.5v-623h-78v721q0 76 -20.5 131t-48 85 t-64.5 47t-63.5 21.5t-51.5 4.5q-129 0 -231 -100.5t-102 -286.5v-623h-78z"/>
<glyph unicode="n" horiz-adv-x="1062" d="M115 0v1053h78v-226h4q41 117 145 183.5t231 66.5q88 0 156 -21.5t106.5 -61.5t63.5 -80t35 -97t12 -89t2 -77v-651h-78v666q0 344 -299 344q-176 0 -277 -122t-101 -319v-569h-78z"/>
<glyph unicode="o" horiz-adv-x="1099" d="M143 526.5q0 -200.5 108.5 -342t297 -141.5t297 141.5t108.5 342t-108.5 342t-297 141.5t-297 -141.5t-108.5 -342zM66 526.5q0 235.5 129 393t354 157.5t354 -157.5t129 -393t-129 -393.5t-354 -158t-354 158t-129 393.5z"/>
<glyph unicode="p" d="M211 1053v-242h4q31 100 129 183t254 83q229 0 351 -158.5t122 -394.5q0 -250 -120 -399.5t-353 -149.5q-293 0 -383 244h-4v-596h-78v1430h78zM598 43q195 0 295 136t100 345q0 201 -99 343.5t-296 142.5t-291 -139.5t-94 -346.5q0 -100 19.5 -182t61.5 -151.5 t120 -108.5t184 -39z"/>
<glyph unicode="q" d="M928 -377v613h-4q-41 -121 -148.5 -191t-240.5 -70q-229 0 -349 154t-120 399q0 236 114.5 392.5t339.5 156.5q270 0 404 -250h4v226h78v-1430h-78zM535 43q190 0 290.5 142.5t100.5 342.5q0 199 -100.5 340.5t-288.5 141.5q-190 0 -292 -140.5t-102 -341.5 q0 -209 97.5 -347t294.5 -138z"/>
<glyph unicode="r" horiz-adv-x="569" d="M193 1053v-234h6q29 104 145 174q110 66 242 66h16v-78q-23 3 -45 3q-135 0 -246 -105q-61 -66 -87.5 -128.5t-30.5 -175.5v-575h-78v1053h78z"/>
<glyph unicode="s" horiz-adv-x="985" d="M74 350h78q8 -143 105 -225t243 -82q57 0 110.5 10t106.5 33t85 69t32 111q0 98 -75 150.5t-181.5 72t-212 43t-180 90t-74.5 185.5q0 141 112.5 205.5t268.5 64.5q176 0 282.5 -82t106.5 -254h-78q0 135 -85 202t-226 67q-123 0 -213.5 -50.5t-90.5 -152.5 q0 -29 5.5 -51.5t20.5 -41.5l27 -34q11 -14 38.5 -26.5t43 -20.5t51.5 -18.5t51 -13.5t57 -13t57 -13q186 -35 279 -97t93 -212q0 -82 -37.5 -141t-100 -90t-130.5 -45.5t-143 -14.5q-186 0 -304 98.5t-122 276.5z"/>
<glyph unicode="t" horiz-adv-x="530" d="M502 1053v-68h-230v-735q0 -119 53 -153q47 -30 149 -30q12 0 26 1v-68q-27 -2 -51 -2q-36 0 -66 4q-49 6 -97 29.5t-72 78.5q-20 46 -20 115q0 12 1 25v735h-195v68h195v327h77v-327h230z"/>
<glyph unicode="u" horiz-adv-x="1062" d="M948 1053v-1053h-78v225h-4q-41 -117 -145.5 -183.5t-231.5 -66.5q-88 0 -155.5 21.5t-106.5 61.5t-63.5 80t-34.5 97.5t-12 89t-2 76.5v652h78v-666q0 -344 299 -344q176 0 277 122t101 318v570h78z"/>
<glyph unicode="v" horiz-adv-x="909" d="M913 1053l-397 -1053h-96l-424 1053h90l381 -963h4l356 963h86z"/>
<glyph unicode="w" horiz-adv-x="1441" d="M80 1053l297 -963h4l287 963h104l289 -963h4l295 963h86l-338 -1053h-96l-289 954h-4l-291 -954h-98l-334 1053h84z"/>
<glyph unicode="x" horiz-adv-x="909" d="M-12 0l413 553l-385 500h109l330 -441l331 441h101l-381 -500l416 -553h-107l-360 494l-369 -494h-98z"/>
<glyph unicode="y" horiz-adv-x="909" d="M428 6l-440 1047h92l391 -961l360 961h89l-451 -1166q-74 -182 -123 -217q-39 -31 -91 -39t-155 -8v68q86 0 132.5 13t86.5 54q33 33 109 248z"/>
<glyph unicode="z" horiz-adv-x="872" d="M113 68h741v-68h-836v74l707 911h-651v68h747v-74z"/>
<glyph unicode="{" horiz-adv-x="681" d="M600 1497v-67h-98q-61 0 -84 -46.5t-23 -164.5v-322q0 -45 -4 -83t-11 -67.5t-15.5 -53t-20.5 -42t-21.5 -31t-22.5 -22.5l-19.5 -15t-18.5 -12l-10 -6q2 -2 24.5 -18.5t39 -35.5t37 -55t31.5 -95.5t11 -137.5v-321q0 -119 22.5 -165t84.5 -46h98v-68h-102 q-90 0 -135.5 54.5t-45.5 187.5v323q0 324 -147 332v78q147 8 147 332v325q0 133 45.5 187.5t135.5 54.5h102z"/>
<glyph unicode="|" horiz-adv-x="454" d="M188 -438v2048h78v-2048h-78z"/>
<glyph unicode="}" horiz-adv-x="681" d="M82 -377v68h98q61 0 84 46t23 165v321q0 78 11 137.5t31.5 95.5t37 55t39 35.5t24.5 18.5l-12 6q-10 6 -16.5 11.5t-19.5 15.5t-22.5 22.5t-21.5 31t-20.5 42t-15.5 53t-11 67.5t-4 83v322q0 119 -22.5 165t-84.5 46h-98v67h102q90 0 135.5 -54t45.5 -188v-325 q0 -324 147 -332v-78q-147 -8 -147 -332v-323q0 -133 -45.5 -187.5t-135.5 -54.5h-102z"/>
<glyph unicode="~" horiz-adv-x="1228" d="M1024 639l57 -57q-35 -51 -62.5 -84t-77.5 -61.5t-107 -28.5q-82 0 -234 77q-129 61 -188 62q-141 0 -203 -154l-59 62q53 88 107 129t142 41q80 0 228 -66l43 -22l51 -25.5t52 -18t63 -8.5q53 0 106 48.5t82 105.5z"/>
<glyph unicode="¡" horiz-adv-x="530" d="M213 1096h104v-211h-104v211zM313 -377h-98v494l25 594h49l24 -594v-494z"/>
<glyph unicode="¢" d="M557 -242v217q-225 12 -339 170t-114 392q0 221 121 374.5t332 165.5v183h66v-183q168 -8 275.5 -97t123.5 -253h-78q-10 127 -97 199.5t-224 83.5v-967q133 12 222 101t109 227h78q-25 -176 -135.5 -279.5t-273.5 -116.5v-217h-66zM557 43v967q-174 -12 -274.5 -150.5 t-100.5 -322.5q0 -213 96.5 -347.5t278.5 -146.5z"/>
<glyph unicode="£" d="M102 676v67h123q-123 217 -123 361q0 184 135.5 288.5t329.5 104.5q242 0 365 -127t117 -379h-78q-2 213 -98.5 320.5t-303.5 107.5q-180 0 -284.5 -83t-104.5 -228q0 -51 15.5 -106.5t31 -89t46 -90t40.5 -79.5h328v-67h-289q47 -72 47 -221q0 -111 -58 -215.5 t-144 -176.5l4 -4q106 74 192 74q92 0 213 -47q121 -43 187 -43q82 0 143 36t133 103l45 -67q-141 -150 -309 -150q-86 0 -221 45q-131 45 -197 45q-49 0 -95 -14t-68.5 -26.5t-82.5 -49.5l-51 70q231 219 232 424q0 123 -60 217h-160z"/>
<glyph unicode="¤" d="M569 276q168 0 293 127t125 303.5t-125 303.5t-293 127t-292.5 -127t-124.5 -303.5t124.5 -303.5t292.5 -127zM1063 268l-55 -55l-109 111q-143 -125 -332 -125q-184 0 -327 125l-113 -115l-55 55l114 113q-121 143 -125 330q0 186 125 329l-116 115l55 55l115 -114 q143 119 327 122q188 0 332 -124l111 112l55 -55l-113 -111q125 -143 125 -329q0 -190 -125 -328z"/>
<glyph unicode="¥" d="M-14 1462h98l487 -766l490 766h92l-487 -762h188v-67h-246v-160h246v-67h-246v-406h-78v406h-245v67h245v160h-245v67h188z"/>
<glyph unicode="¦" horiz-adv-x="454" d="M188 842v512h78v-512h-78zM188 -182v512h78v-512h-78z"/>
<glyph unicode="§" d="M920 1098h-78q4 131 -72 231.5t-207 100.5q-94 4 -178 -58.5t-84 -157.5q0 -102 75 -181t181 -132l213 -109q106 -56 182 -146.5t78 -209.5q0 -219 -227 -278q63 -59 90 -113.5t27 -138.5q0 -145 -96.5 -214t-248.5 -69q-174 0 -273 109.5t-99 285.5h78q4 -145 78.5 -236 t213.5 -91q268 0 269 215q0 61 -28 113.5t-78 93.5t-107.5 75.5t-126.5 71.5q-18 10 -29 14l-121 72q-37 23 -97 68t-86 79.5t-45.5 87t-17.5 109.5q0 94 66 167t162 108q-63 45 -92 124.5t-19 124.5q0 125 103.5 206t236.5 77q174 0 264.5 -105.5t92.5 -293.5zM694 735 l-311 185q-82 -31 -140.5 -90.5t-58.5 -139.5q0 -66 39 -123t77 -84.5t106 -68.5l337 -207q35 -10 138 69q72 68 71 160q0 94 -72.5 165t-185.5 134z"/>
<glyph unicode="¨" horiz-adv-x="342" d="M377 1235h-90v211h90v-211zM53 1235h-90v211h90v-211z"/>
<glyph unicode="©" horiz-adv-x="1638" d="M819.5 1497q317.5 0 541.5 -224t224 -541.5t-224 -542t-541.5 -224.5t-542 224.5t-224.5 542t224.5 541.5t542 224zM1227 897h-78q-23 117 -108 183.5t-203 66.5q-176 0 -278.5 -114.5t-102.5 -297.5q0 -178 105.5 -300t279.5 -122q121 0 198.5 71t108.5 191h78 q-20 -147 -128 -238t-257 -91q-207 0 -335 138t-128 349q0 213 124 347t333 134q154 0 263.5 -83.5t127.5 -233.5zM821 1430q-295 0 -492.5 -201t-197.5 -496q0 -293 198.5 -496.5t491.5 -203.5q291 0 488.5 204.5t197.5 495.5q0 295 -196.5 496t-489.5 201z"/>
<glyph unicode="ª" horiz-adv-x="634" d="M125 1221h-66q25 217 271 217q248 0 248 -174v-365q0 -29 1 -39t9 -23.5t26 -13.5h15q6 0 22 4v-55q-29 -4 -41 -4q-55 0 -73.5 23.5t-18.5 68.5v29h-4q-20 -59 -87 -99t-165 -40q-113 0 -174 44t-61 152q0 55 21.5 94t62.5 58.5t78.5 29t89.5 13.5q166 12 200.5 32.5 t34.5 100.5q0 53 -52 80.5t-138 27.5t-139.5 -41.5t-59.5 -119.5zM512 1020v115q-14 -14 -44 -24.5t-55.5 -12.5t-72.5 -6.5l-68 -6.5q-180 -23 -180 -139q0 -61 44 -101t120 -40q80 0 136.5 27.5t80 68.5t31.5 70t8 49z"/>
<glyph unicode="«" horiz-adv-x="796" d="M633 248l-234 268v82l234 268v-104l-174 -205l174 -209v-100zM371 248l-234 268v82l234 268v-104l-174 -205l174 -209v-100z"/>
<glyph unicode="¬" horiz-adv-x="1228" d="M1053 221v457h-955v78h1032v-535h-77z"/>
<glyph unicode="­" horiz-adv-x="720" d="M580 518h-439v78h439v-78z"/>
<glyph unicode="®" horiz-adv-x="1638" d="M819.5 1497q317.5 0 541.5 -224t224 -541.5t-224 -542t-541.5 -224.5t-542 224.5t-224.5 542t224.5 541.5t542 224zM821 1430q-295 0 -492.5 -201t-197.5 -498q0 -291 198.5 -494.5t491.5 -203.5q291 0 488.5 204.5t197.5 495.5q0 295 -196.5 496t-489.5 201zM618 1116 v-352h193q61 0 104 5t89.5 21.5t70 53.5t23.5 92q0 96 -66.5 138t-163.5 42h-250zM541 279v905h340q295 0 295 -250q0 -104 -64.5 -164.5t-169.5 -75.5l270 -415h-86l-272 417h-236v-417h-77z"/>
<glyph unicode="¯" horiz-adv-x="342" d="M420 1307h-496v67h496v-67z"/>
<glyph unicode="°" horiz-adv-x="819" d="M409.5 852q-122.5 0 -207.5 85t-85 208t85 208t207.5 85t207.5 -85t85 -208t-85 -208t-207.5 -85zM409.5 1370q-90.5 0 -152.5 -66.5t-62 -158.5q0 -94 61 -159.5t153.5 -65.5t154 65.5t61.5 159.5q0 92 -62.5 158.5t-153 66.5z"/>
<glyph unicode="±" horiz-adv-x="1228" d="M98 0v78h1032v-78h-1032zM575 645v387h78v-387h477v-78h-477v-387h-78v387h-477v78h477z"/>
<glyph unicode="²" horiz-adv-x="681" d="M98 618h549v-55h-614q2 92 59.5 167t135.5 125l158 97q79 47 134 109.5t55 136.5q0 76 -58 130t-169 54q-219 0 -233 -254h-66q16 309 299 310q129 0 211 -61.5t82 -180.5q0 -92 -68.5 -166t-189.5 -149q-14 -10 -61 -39l-64 -39q-16 -10 -50 -37t-49.5 -44t-34 -45 t-26.5 -59z"/>
<glyph unicode="³" horiz-adv-x="681" d="M37 850h65q-4 -117 68 -183.5t197 -66.5q104 0 181 55.5t77 145.5q0 104 -89.5 148t-218.5 36v55q117 -6 202 35t85 139q0 80 -73.5 124t-163.5 44q-115 0 -176.5 -64.5t-65.5 -172.5h-66q2 137 84 215t234 78q123 0 208 -55.5t85 -168.5q0 -76 -49.5 -130t-131.5 -64v-4 q92 -10 146.5 -69.5t54.5 -145.5q0 -125 -88 -190.5t-225 -65.5q-170 0 -258 77.5t-82 227.5z"/>
<glyph unicode="´" horiz-adv-x="342" d="M53 1208l246 287h104l-274 -287h-76z"/>
<glyph unicode="µ" horiz-adv-x="1062" d="M948 1053v-1053h-78v225h-4q-41 -117 -145.5 -183.5t-231.5 -66.5q-205 0 -292 115h-4v-467h-78v1430h78v-666q0 -344 299 -344q176 0 277 122t101 318v570h78z"/>
<glyph unicode="¶" horiz-adv-x="1228" d="M559 -299v963q-178 0 -301 116.5t-123 280.5q0 197 119 299t338 102h444v-1761h-78v1694h-321v-1694h-78z"/>
<glyph unicode="·" horiz-adv-x="569" d="M174 649q0 43 34 77t77 34t77.5 -34t34.5 -77q0 -45 -33.5 -78.5t-78.5 -33.5q-43 0 -77 34.5t-34 77.5z"/>
<glyph unicode="¸" horiz-adv-x="342" d="M170 0h70l-99 -115l4 -4q37 16 76 17q63 2 107.5 -35t44.5 -107q0 -158 -201 -157q-109 0 -188 51l22 49q94 -45 164 -45q53 0 89 25.5t36 76.5q0 41 -32 64.5t-66 23.5q-55 0 -109 -24l-33 26z"/>
<glyph unicode="¹" horiz-adv-x="681" d="M426 1419v-856h-66v760q-96 -96 -239 -109v56q158 23 246 149h59z"/>
<glyph unicode="º" horiz-adv-x="684" d="M342 805q127 0 192.5 82t65.5 207t-65.5 206.5t-192.5 81.5t-192.5 -81.5t-65.5 -206.5t65.5 -207t192.5 -82zM342 750q-152 0 -238 95t-86 249q0 152 86 248t238 96t238 -96.5t86 -247.5q0 -154 -86 -249t-238 -95z"/>
<glyph unicode="»" horiz-adv-x="796" d="M426 248v100l174 209l-174 205v104l233 -268v-82zM164 248v100l174 209l-174 205v104l233 -268v-82z"/>
<glyph unicode="¼" horiz-adv-x="1708" d="M1313 268v512h-4l-363 -512h367zM1282 848h96v-580h146v-55h-146v-213h-65v213h-441v55zM498 1419v-856h-66v760q-96 -96 -239 -109v56q158 23 245 149h60zM309 -49l953 1511h81l-952 -1511h-82z"/>
<glyph unicode="½" horiz-adv-x="1708" d="M1059 55h545v-55h-615q2 92 59.5 167t136.5 125l157 97q79 47 134.5 109.5t55.5 136.5q0 76 -58.5 130t-168.5 54q-219 0 -234 -254h-65q16 309 299 309q129 0 210.5 -61t81.5 -180q0 -92 -68.5 -166t-189.5 -150q-12 -8 -48 -29l-48 -29q-12 -7 -40.5 -26.5t-40 -31 t-33 -29.5t-32 -34.5t-21.5 -38t-17 -44.5zM436 1419v-856h-65v760q-96 -96 -240 -109v56q158 23 246 149h59zM248 -49l952 1511h82l-952 -1511h-82z"/>
<glyph unicode="¾" horiz-adv-x="1708" d="M1374 268v512h-4l-362 -512h366zM1343 848h97v-580h145v-55h-145v-213h-66v213h-440v55zM406 -49l952 1511h82l-953 -1511h-81zM68 850h65q-4 -117 67.5 -183.5t196.5 -66.5q104 0 181 55.5t77 145.5q0 104 -89 148t-218 36v55q117 -6 202 35t85 139q0 80 -74 124 t-164 44q-115 0 -176 -64.5t-65 -172.5h-66q2 137 84 215t234 78q123 0 207.5 -55.5t84.5 -168.5q0 -76 -49 -130t-131 -64v-4q92 -10 146.5 -69.5t54.5 -145.5q0 -125 -88 -190.5t-225 -65.5q-170 0 -258 77.5t-82 227.5z"/>
<glyph unicode="¿" horiz-adv-x="1062" d="M588 1096v-211h-105v211h105zM895 86h78q0 -223 -119 -355t-336 -132q-174 0 -287.5 94t-113.5 272q0 63 12 112.5t47 97.5t52 67l71 71q51 45 72.5 67.5t59.5 75t53.5 118t15.5 151.5h78q0 -150 -46.5 -243t-134.5 -177q-63 -59 -100 -100t-69.5 -106.5t-32.5 -133.5 q0 -143 95 -216t234 -73q178 0 274.5 113t96.5 297z"/>
<glyph unicode="À" horiz-adv-x="1214" d="M287 547h643l-314 827h-4zM563 1462h99l577 -1462h-96l-185 469h-700l-186 -469h-97zM662 1597h-76l-275 287h105z"/>
<glyph unicode="Á" horiz-adv-x="1214" d="M287 547h643l-314 827h-4zM563 1462h99l577 -1462h-96l-185 469h-700l-186 -469h-97zM563 1597l246 287h104l-274 -287h-76z"/>
<glyph unicode="Â" horiz-adv-x="1214" d="M287 547h643l-314 827h-4zM563 1462h99l577 -1462h-96l-185 469h-700l-186 -469h-97zM571 1884h82l238 -287h-78l-201 236l-198 -236h-78z"/>
<glyph unicode="Ã" horiz-adv-x="1214" d="M287 547h643l-314 827h-4zM563 1462h99l577 -1462h-96l-185 469h-700l-186 -469h-97zM379 1636h-60q4 74 47.5 129.5t110.5 55.5q49 4 146.5 -55.5t136.5 -61.5q39 0 62.5 35t29.5 82h59q-8 -78 -46 -131.5t-109 -53.5q-45 0 -142 60q-57 35 -88 47q-25 10 -51 10 q-78 0 -96 -117z"/>
<glyph unicode="Ä" horiz-adv-x="1214" d="M287 547h643l-314 827h-4zM563 1462h99l577 -1462h-96l-185 469h-700l-186 -469h-97zM821 1624h-90v211h90v-211zM498 1624h-90v211h90v-211z"/>
<glyph unicode="Å" horiz-adv-x="1214" d="M287 547h643l-314 827h-4zM563 1462h99l577 -1462h-96l-185 469h-700l-186 -469h-97zM465 1740.5q0 -61.5 43 -104.5t104.5 -43t104.5 43t43 104.5t-43 104.5t-104.5 43t-104.5 -43t-43 -104.5zM410 1741q0 86 58 144.5t144 58.5t144.5 -58.5t58.5 -144.5t-58.5 -144.5 t-144.5 -58.5t-144 58.5t-58 144.5z"/>
<glyph unicode="Æ" horiz-adv-x="1781" d="M883 598v786h-97l-411 -786h508zM-18 0l763 1462h1004v-78h-776v-585h717v-78h-717v-643h778v-78h-868v520h-549l-271 -520h-81z"/>
<glyph unicode="Ç" horiz-adv-x="1441" d="M1358 1026h-90q-29 180 -169.5 286.5t-328.5 106.5q-279 0 -442.5 -197.5t-163.5 -490.5t164 -490.5t442 -197.5q209 0 359.5 157.5t162.5 368.5h90q-25 -262 -197.5 -433t-414.5 -171h-2l-68 -80l5 -4q37 16 75 17q63 2 107.5 -35t44.5 -107q0 -158 -201 -157 q-109 0 -188 51l22 49q94 -45 164 -45q53 0 89 25.5t36 76.5q0 41 -31.5 64.5t-66.5 23.5q-55 0 -109 -24l-33 26l91 121q-119 8 -230 58q-190 88 -295.5 275t-105.5 431q0 332 188.5 549t507.5 217q145 0 259 -48t172.5 -111.5t97 -137.5t49 -117t10.5 -57z"/>
<glyph unicode="È" horiz-adv-x="1146" d="M219 78h903v-78h-993v1462h983v-78h-893v-585h840v-78h-840v-643zM702 1597h-75l-275 287h105z"/>
<glyph unicode="É" horiz-adv-x="1146" d="M219 78h903v-78h-993v1462h983v-78h-893v-585h840v-78h-840v-643zM580 1597l245 287h105l-275 -287h-75z"/>
<glyph unicode="Ê" horiz-adv-x="1146" d="M219 78h903v-78h-993v1462h983v-78h-893v-585h840v-78h-840v-643zM567 1884h82l238 -287h-78l-201 236l-198 -236h-78z"/>
<glyph unicode="Ë" horiz-adv-x="1146" d="M219 78h903v-78h-993v1462h983v-78h-893v-585h840v-78h-840v-643zM829 1624h-90v211h90v-211zM506 1624h-90v211h90v-211z"/>
<glyph unicode="Ì" horiz-adv-x="348" d="M129 0v1462h90v-1462h-90zM221 1597h-76l-274 287h104z"/>
<glyph unicode="Í" horiz-adv-x="348" d="M129 0v1462h90v-1462h-90zM131 1597l246 287h104l-274 -287h-76z"/>
<glyph unicode="Î" horiz-adv-x="348" d="M129 0v1462h90v-1462h-90zM133 1884h82l238 -287h-78l-201 236l-199 -236h-77z"/>
<glyph unicode="Ï" horiz-adv-x="348" d="M129 0v1462h90v-1462h-90zM381 1624h-90v211h90v-211zM57 1624h-90v211h90v-211z"/>
<glyph unicode="Ð" horiz-adv-x="1366" d="M219 811h541v-68h-541v-665h393q86 0 165 19.5t157 66.5t134 119.5t91 188.5t35 261q0 170 -43 296t-104.5 192.5t-149.5 105.5t-155.5 48t-147.5 9h-375v-573zM129 811v651h479q152 0 270.5 -41t194.5 -108.5t124 -163.5t67.5 -197.5t19.5 -218.5q0 -330 -171 -531.5 t-509 -201.5h-475v743h-139v68h139z"/>
<glyph unicode="Ñ" horiz-adv-x="1388" d="M129 0v1462h113l923 -1341h4v1341h91v-1462h-107l-930 1352h-4v-1352h-90zM481 1636h-59q4 74 47 129.5t111 55.5q49 4 146 -55.5t136 -61.5q39 0 62.5 35t29.5 82h60q-8 -78 -46 -131.5t-110 -53.5q-45 0 -141 60q-57 35 -88 47q-25 10 -51 10q-79 0 -97 -117z"/>
<glyph unicode="Ò" horiz-adv-x="1517" d="M154 731q0 -293 163.5 -490.5t442.5 -197.5q276 0 440 197.5t164 490.5t-164 490.5t-440 197.5q-279 0 -442.5 -197.5t-163.5 -490.5zM1454 731q0 -330 -187.5 -548t-507 -218t-508 217t-188.5 549t188.5 549t508 217t507 -218t187.5 -548zM821 1597h-76l-274 287h104z "/>
<glyph unicode="Ó" horiz-adv-x="1517" d="M154 731q0 -293 163.5 -490.5t442.5 -197.5q276 0 440 197.5t164 490.5t-164 490.5t-440 197.5q-279 0 -442.5 -197.5t-163.5 -490.5zM1454 731q0 -330 -187.5 -548t-507 -218t-508 217t-188.5 549t188.5 549t508 217t507 -218t187.5 -548zM690 1597l246 287h104 l-274 -287h-76z"/>
<glyph unicode="Ô" horiz-adv-x="1517" d="M154 731q0 -293 163.5 -490.5t442.5 -197.5q276 0 440 197.5t164 490.5t-164 490.5t-440 197.5q-279 0 -442.5 -197.5t-163.5 -490.5zM1454 731q0 -330 -187.5 -548t-507 -218t-508 217t-188.5 549t188.5 549t508 217t507 -218t187.5 -548zM721 1884h82l237 -287h-77 l-201 236l-199 -236h-78z"/>
<glyph unicode="Õ" horiz-adv-x="1517" d="M154 731q0 -293 163.5 -490.5t442.5 -197.5q276 0 440 197.5t164 490.5t-164 490.5t-440 197.5q-279 0 -442.5 -197.5t-163.5 -490.5zM1454 731q0 -330 -187.5 -548t-507 -218t-508 217t-188.5 549t188.5 549t508 217t507 -218t187.5 -548zM524 1636h-59q4 74 47 129.5 t111 55.5q49 4 146 -55.5t136 -61.5q39 0 62.5 35t29.5 82h60q-8 -78 -46 -131.5t-110 -53.5q-45 0 -141 60q-57 35 -88 47q-25 10 -51 10q-79 0 -97 -117z"/>
<glyph unicode="Ö" horiz-adv-x="1517" d="M154 731q0 -293 163.5 -490.5t442.5 -197.5q276 0 440 197.5t164 490.5t-164 490.5t-440 197.5q-279 0 -442.5 -197.5t-163.5 -490.5zM1454 731q0 -330 -187.5 -548t-507 -218t-508 217t-188.5 549t188.5 549t508 217t507 -218t187.5 -548zM971 1624h-90v211h90v-211z M647 1624h-90v211h90v-211z"/>
<glyph unicode="×" horiz-adv-x="1228" d="M162 119l397 397l-397 399l53 56l399 -400l398 400l55 -56l-397 -399l397 -397l-55 -56l-398 400l-399 -400z"/>
<glyph unicode="Ø" horiz-adv-x="1517" d="M70 33l161 176q-168 213 -168 522q0 332 188.5 549t508.5 217q289 0 475 -186l139 151l53 -49l-143 -156q170 -207 170 -526q0 -330 -187.5 -548t-506.5 -218q-301 0 -481 191l-156 -172zM293 274l885 973q-168 172 -418 172q-279 0 -442.5 -197.5t-163.5 -490.5 q0 -271 139 -457zM1225 1192l-887 -971q166 -178 422 -178q276 0 440 197.5t164 490.5q0 271 -139 461z"/>
<glyph unicode="Ù" horiz-adv-x="1376" d="M129 1462h90v-876q0 -66 6 -125.5t34 -140t74 -138t135 -98.5t210 -41q258 0 368.5 139.5t110.5 403.5v876h90v-876q0 -621 -569 -621q-549 0 -549 621v876zM754 1597h-76l-275 287h105z"/>
<glyph unicode="Ú" horiz-adv-x="1376" d="M129 1462h90v-876q0 -66 6 -125.5t34 -140t74 -138t135 -98.5t210 -41q258 0 368.5 139.5t110.5 403.5v876h90v-876q0 -621 -569 -621q-549 0 -549 621v876zM598 1597l246 287h104l-274 -287h-76z"/>
<glyph unicode="Û" horiz-adv-x="1376" d="M129 1462h90v-876q0 -66 6 -125.5t34 -140t74 -138t135 -98.5t210 -41q258 0 368.5 139.5t110.5 403.5v876h90v-876q0 -621 -569 -621q-549 0 -549 621v876zM643 1884h82l238 -287h-78l-201 236l-199 -236h-77z"/>
<glyph unicode="Ü" horiz-adv-x="1376" d="M129 1462h90v-876q0 -66 6 -125.5t34 -140t74 -138t135 -98.5t210 -41q258 0 368.5 139.5t110.5 403.5v876h90v-876q0 -621 -569 -621q-549 0 -549 621v876zM901 1624h-90v211h90v-211zM578 1624h-91v211h91v-211z"/>
<glyph unicode="Ý" horiz-adv-x="1175" d="M588 688l530 774h101l-588 -850v-612h-90v612l-584 850h102zM541 1597l245 287h105l-275 -287h-75z"/>
<glyph unicode="Þ" horiz-adv-x="1214" d="M219 1139v-656h514q182 0 268 97.5t86 230.5q0 49 -13 98t-47 104.5t-106.5 90.5t-175.5 35h-526zM129 0v1462h90v-245h533q57 0 108 -8.5t111.5 -35t104.5 -69.5t73 -119t29 -176q0 -195 -119 -299t-340 -104h-500v-406h-90z"/>
<glyph unicode="ß" horiz-adv-x="1024" d="M424 776v68q162 0 268.5 74.5t106.5 228.5q0 129 -87 200.5t-220 71.5q-295 0 -295 -319v-1100h-78v1100q0 387 373 387q170 0 277.5 -87t107.5 -253q0 -266 -244 -322v-4q156 -18 235.5 -118.5t79.5 -264.5q0 -113 -31.5 -197.5t-76.5 -129.5t-106.5 -72t-105.5 -33 t-91 -6h-113v68h78q45 0 85 5t95 27.5t94 60.5t66.5 109.5t27.5 167.5q0 188 -117.5 263t-328.5 75z"/>
<glyph unicode="à" horiz-adv-x="1024" d="M891 803v-608q0 -33 1 -47.5t7 -37t21.5 -32.5t40.5 -10q20 0 57 6v-66q-31 -8 -64 -8q-84 0 -112.5 39t-28.5 115v55h-4q-39 -100 -142.5 -167t-248.5 -67q-352 0 -352 297q0 88 33.5 149.5t96 93.5t121 46t136.5 23q111 6 172 15t104 21.5t59.5 40t21.5 55t5 87.5 q0 23 -13.5 53.5t-42 67.5t-91 61.5t-146.5 24.5q-143 0 -229 -73t-94 -208h-78q8 172 110.5 260t290.5 88q369 0 369 -274zM813 401v197q-27 -33 -81 -47t-157.5 -21.5t-142.5 -13.5q-145 -18 -217 -73.5t-72 -170.5q0 -102 71 -165.5t206 -63.5q100 0 176 33t116 77 t64.5 99t30.5 89.5t6 59.5zM586 1208h-76l-274 287h104z"/>
<glyph unicode="á" horiz-adv-x="1024" d="M891 803v-608q0 -33 1 -47.5t7 -37t21.5 -32.5t40.5 -10q20 0 57 6v-66q-31 -8 -64 -8q-84 0 -112.5 39t-28.5 115v55h-4q-39 -100 -142.5 -167t-248.5 -67q-352 0 -352 297q0 88 33.5 149.5t96 93.5t121 46t136.5 23q111 6 172 15t104 21.5t59.5 40t21.5 55t5 87.5 q0 23 -13.5 53.5t-42 67.5t-91 61.5t-146.5 24.5q-143 0 -229 -73t-94 -208h-78q8 172 110.5 260t290.5 88q369 0 369 -274zM813 401v197q-27 -33 -81 -47t-157.5 -21.5t-142.5 -13.5q-145 -18 -217 -73.5t-72 -170.5q0 -102 71 -165.5t206 -63.5q100 0 176 33t116 77 t64.5 99t30.5 89.5t6 59.5zM449 1208l245 287h105l-275 -287h-75z"/>
<glyph unicode="â" horiz-adv-x="1024" d="M891 803v-608q0 -33 1 -47.5t7 -37t21.5 -32.5t40.5 -10q20 0 57 6v-66q-31 -8 -64 -8q-84 0 -112.5 39t-28.5 115v55h-4q-39 -100 -142.5 -167t-248.5 -67q-352 0 -352 297q0 88 33.5 149.5t96 93.5t121 46t136.5 23q111 6 172 15t104 21.5t59.5 40t21.5 55t5 87.5 q0 23 -13.5 53.5t-42 67.5t-91 61.5t-146.5 24.5q-143 0 -229 -73t-94 -208h-78q8 172 110.5 260t290.5 88q369 0 369 -274zM813 401v197q-27 -33 -81 -47t-157.5 -21.5t-142.5 -13.5q-145 -18 -217 -73.5t-72 -170.5q0 -102 71 -165.5t206 -63.5q100 0 176 33t116 77 t64.5 99t30.5 89.5t6 59.5zM483 1495h82l238 -287h-78l-201 236l-198 -236h-78z"/>
<glyph unicode="ã" horiz-adv-x="1024" d="M891 803v-608q0 -33 1 -47.5t7 -37t21.5 -32.5t40.5 -10q20 0 57 6v-66q-31 -8 -64 -8q-84 0 -112.5 39t-28.5 115v55h-4q-39 -100 -142.5 -167t-248.5 -67q-352 0 -352 297q0 88 33.5 149.5t96 93.5t121 46t136.5 23q111 6 172 15t104 21.5t59.5 40t21.5 55t5 87.5 q0 23 -13.5 53.5t-42 67.5t-91 61.5t-146.5 24.5q-143 0 -229 -73t-94 -208h-78q8 172 110.5 260t290.5 88q369 0 369 -274zM813 401v197q-27 -33 -81 -47t-157.5 -21.5t-142.5 -13.5q-145 -18 -217 -73.5t-72 -170.5q0 -102 71 -165.5t206 -63.5q100 0 176 33t116 77 t64.5 99t30.5 89.5t6 59.5zM289 1247h-60q4 74 47 129.5t111 55.5q49 4 146.5 -55.5t136.5 -61.5q39 0 62.5 34.5t29.5 82.5h59q-8 -78 -46 -131.5t-109 -53.5q-45 0 -142 60q-57 35 -88 47q-25 10 -51 10q-78 0 -96 -117z"/>
<glyph unicode="ä" horiz-adv-x="1024" d="M891 803v-608q0 -33 1 -47.5t7 -37t21.5 -32.5t40.5 -10q20 0 57 6v-66q-31 -8 -64 -8q-84 0 -112.5 39t-28.5 115v55h-4q-39 -100 -142.5 -167t-248.5 -67q-352 0 -352 297q0 88 33.5 149.5t96 93.5t121 46t136.5 23q111 6 172 15t104 21.5t59.5 40t21.5 55t5 87.5 q0 23 -13.5 53.5t-42 67.5t-91 61.5t-146.5 24.5q-143 0 -229 -73t-94 -208h-78q8 172 110.5 260t290.5 88q369 0 369 -274zM813 401v197q-27 -33 -81 -47t-157.5 -21.5t-142.5 -13.5q-145 -18 -217 -73.5t-72 -170.5q0 -102 71 -165.5t206 -63.5q100 0 176 33t116 77 t64.5 99t30.5 89.5t6 59.5zM731 1235h-90v211h90v-211zM408 1235h-91v211h91v-211z"/>
<glyph unicode="å" horiz-adv-x="1024" d="M891 803v-608q0 -33 1 -47.5t7 -37t21.5 -32.5t40.5 -10q20 0 57 6v-66q-31 -8 -64 -8q-84 0 -112.5 39t-28.5 115v55h-4q-39 -100 -142.5 -167t-248.5 -67q-352 0 -352 297q0 88 33.5 149.5t96 93.5t121 46t136.5 23q111 6 172 15t104 21.5t59.5 40t21.5 55t5 87.5 q0 23 -13.5 53.5t-42 67.5t-91 61.5t-146.5 24.5q-143 0 -229 -73t-94 -208h-78q8 172 110.5 260t290.5 88q369 0 369 -274zM813 401v197q-27 -33 -81 -47t-157.5 -21.5t-142.5 -13.5q-145 -18 -217 -73.5t-72 -170.5q0 -102 71 -165.5t206 -63.5q100 0 176 33t116 77 t64.5 99t30.5 89.5t6 59.5zM377 1372.5q0 -61.5 43 -104.5t104.5 -43t104.5 43t43 104.5t-43 104.5t-104.5 43t-104.5 -43t-43 -104.5zM322 1372q0 86 58 144.5t144 58.5t144.5 -58.5t58.5 -144.5t-58.5 -144.5t-144.5 -58.5t-144 58.5t-58 144.5z"/>
<glyph unicode="æ" horiz-adv-x="1820" d="M1753 516h-842q-12 -201 89.5 -337t295.5 -136q150 0 247 80t120 227h78q-29 -176 -146.5 -275.5t-298.5 -99.5q-162 0 -273.5 78t-148.5 228h-4q-51 -143 -163.5 -224.5t-264.5 -81.5q-162 0 -269 74t-107 219q0 297 383 312q35 4 91 7l93 5q37 2 80 12t67.5 26.5 t40 50.5t10.5 83q0 127 -75.5 186.5t-231.5 59.5q-315 0 -336 -287h-77q12 178 121.5 266t291.5 88q348 0 369 -268h4q96 268 399 268q231 0 354 -162.5t103 -398.5zM831 412v180h-4q-10 -18 -34.5 -29.5t-67.5 -18.5t-80 -10.5t-102.5 -7.5t-102.5 -8q-297 -18 -297 -250 q0 -113 88 -169t211 -56q154 0 269.5 107.5t119.5 261.5zM909 584h766q4 176 -100.5 301t-278.5 125q-180 0 -276.5 -121t-110.5 -305z"/>
<glyph unicode="ç" horiz-adv-x="1062" d="M985 727h-78q-12 135 -110.5 209t-245.5 74q-186 0 -296 -140.5t-110 -332.5q0 -223 104.5 -358.5t301.5 -135.5q145 0 245.5 91t121.5 237h77q-18 -137 -94 -233.5t-190 -135.5q-61 -23 -129 -25l-78 -92l4 -4q37 16 76 17q63 2 107 -35t44 -107q0 -158 -200 -157 q-109 0 -189 51l23 49q94 -45 163 -45q53 0 89 25.5t36 76.5q0 41 -31.5 64.5t-66.5 23.5q-55 0 -108 -24l-33 26l96 131q-109 2 -184 43q-131 68 -196.5 205t-65.5 312q0 231 129 385.5t354 154.5q178 0 298 -89t136 -261z"/>
<glyph unicode="è" horiz-adv-x="1062" d="M145 584h773q-4 176 -108.5 301t-277.5 125q-166 0 -269.5 -128t-117.5 -298zM995 516h-850q-4 -197 98.5 -335t288.5 -138q150 0 249.5 83t127.5 230h78q-31 -184 -147.5 -282.5t-307.5 -98.5q-221 0 -345 153t-119 380q-4 233 117.5 401t346.5 168q236 0 355.5 -160.5 t107.5 -400.5zM596 1208h-76l-274 287h104z"/>
<glyph unicode="é" horiz-adv-x="1062" d="M145 584h773q-4 176 -108.5 301t-277.5 125q-166 0 -269.5 -128t-117.5 -298zM995 516h-850q-4 -197 98.5 -335t288.5 -138q150 0 249.5 83t127.5 230h78q-31 -184 -147.5 -282.5t-307.5 -98.5q-221 0 -345 153t-119 380q-4 233 117.5 401t346.5 168q236 0 355.5 -160.5 t107.5 -400.5zM487 1208l246 287h105l-275 -287h-76z"/>
<glyph unicode="ê" horiz-adv-x="1062" d="M145 584h773q-4 176 -108.5 301t-277.5 125q-166 0 -269.5 -128t-117.5 -298zM995 516h-850q-4 -197 98.5 -335t288.5 -138q150 0 249.5 83t127.5 230h78q-31 -184 -147.5 -282.5t-307.5 -98.5q-221 0 -345 153t-119 380q-4 233 117.5 401t346.5 168q236 0 355.5 -160.5 t107.5 -400.5zM489 1495h82l238 -287h-78l-201 236l-198 -236h-78z"/>
<glyph unicode="ë" horiz-adv-x="1062" d="M145 584h773q-4 176 -108.5 301t-277.5 125q-166 0 -269.5 -128t-117.5 -298zM995 516h-850q-4 -197 98.5 -335t288.5 -138q150 0 249.5 83t127.5 230h78q-31 -184 -147.5 -282.5t-307.5 -98.5q-221 0 -345 153t-119 380q-4 233 117.5 401t346.5 168q236 0 355.5 -160.5 t107.5 -400.5zM737 1235h-90v211h90v-211zM414 1235h-90v211h90v-211z"/>
<glyph unicode="ì" horiz-adv-x="344" d="M211 0h-78v1053h78v-1053zM213 1208h-76l-274 287h104z"/>
<glyph unicode="í" horiz-adv-x="344" d="M211 0h-78v1053h78v-1053zM131 1208l246 287h104l-274 -287h-76z"/>
<glyph unicode="î" horiz-adv-x="344" d="M211 0h-78v1053h78v-1053zM131 1495h82l238 -287h-78l-201 236l-199 -236h-77z"/>
<glyph unicode="ï" horiz-adv-x="344" d="M211 0h-78v1053h78v-1053zM379 1235h-90v211h90v-211zM55 1235h-90v211h90v-211z"/>
<glyph unicode="ð" horiz-adv-x="1099" d="M299 1192l221 123q-113 86 -211 133l58 49q119 -63 221 -145l235 131l41 -45l-223 -125q391 -311 391 -803q0 -233 -125 -384t-356 -151q-238 0 -361.5 148.5t-123.5 386.5q0 223 130 374.5t355 151.5q211 0 334 -151l4 4q-88 207 -318 385l-229 -127zM550.5 969 q-190.5 0 -299 -134.5t-108.5 -324.5q0 -195 105.5 -331t302.5 -136q199 0 301 133t102 334q0 190 -106.5 324.5t-297 134.5z"/>
<glyph unicode="ñ" horiz-adv-x="1062" d="M115 0v1053h78v-226h4q41 117 145 183.5t231 66.5q88 0 156 -21.5t106.5 -61.5t63.5 -80t35 -97t12 -89t2 -77v-651h-78v666q0 344 -299 344q-176 0 -277 -122t-101 -319v-569h-78zM301 1247h-59q4 74 47 129.5t110 55.5q49 4 146.5 -55.5t136.5 -61.5q39 0 62.5 34.5 t29.5 82.5h60q-8 -78 -46 -131.5t-110 -53.5q-45 0 -141 60q-57 35 -88 47q-25 10 -52 10q-78 0 -96 -117z"/>
<glyph unicode="ò" horiz-adv-x="1099" d="M143 526.5q0 -200.5 108.5 -342t297 -141.5t297 141.5t108.5 342t-108.5 342t-297 141.5t-297 -141.5t-108.5 -342zM66 526.5q0 235.5 129 393t354 157.5t354 -157.5t129 -393t-129 -393.5t-354 -158t-354 158t-129 393.5zM621 1208h-76l-275 287h105z"/>
<glyph unicode="ó" horiz-adv-x="1099" d="M143 526.5q0 -200.5 108.5 -342t297 -141.5t297 141.5t108.5 342t-108.5 342t-297 141.5t-297 -141.5t-108.5 -342zM66 526.5q0 235.5 129 393t354 157.5t354 -157.5t129 -393t-129 -393.5t-354 -158t-354 158t-129 393.5zM502 1208l246 287h104l-274 -287h-76z"/>
<glyph unicode="ô" horiz-adv-x="1099" d="M143 526.5q0 -200.5 108.5 -342t297 -141.5t297 141.5t108.5 342t-108.5 342t-297 141.5t-297 -141.5t-108.5 -342zM66 526.5q0 235.5 129 393t354 157.5t354 -157.5t129 -393t-129 -393.5t-354 -158t-354 158t-129 393.5zM508 1495h82l237 -287h-77l-201 236l-199 -236 h-78z"/>
<glyph unicode="õ" horiz-adv-x="1099" d="M143 526.5q0 -200.5 108.5 -342t297 -141.5t297 141.5t108.5 342t-108.5 342t-297 141.5t-297 -141.5t-108.5 -342zM66 526.5q0 235.5 129 393t354 157.5t354 -157.5t129 -393t-129 -393.5t-354 -158t-354 158t-129 393.5zM313 1247h-59q4 74 47 129.5t111 55.5 q49 4 146 -55.5t136 -61.5q39 0 62.5 34.5t29.5 82.5h60q-8 -78 -46 -131.5t-110 -53.5q-45 0 -141 60q-57 35 -88 47q-25 10 -51 10q-79 0 -97 -117z"/>
<glyph unicode="ö" horiz-adv-x="1099" d="M143 526.5q0 -200.5 108.5 -342t297 -141.5t297 141.5t108.5 342t-108.5 342t-297 141.5t-297 -141.5t-108.5 -342zM66 526.5q0 235.5 129 393t354 157.5t354 -157.5t129 -393t-129 -393.5t-354 -158t-354 158t-129 393.5zM756 1235h-90v211h90v-211zM432 1235h-90v211 h90v-211z"/>
<glyph unicode="÷" horiz-adv-x="1228" d="M512 104q0 45 30.5 76t73.5 31t75 -30.5t32 -76.5q0 -43 -32 -73.5t-75 -30.5t-73.5 30.5t-30.5 73.5zM512 926q0 45 30.5 75.5t73.5 30.5t75 -30.5t32 -75.5q0 -43 -32 -74t-75 -31t-73.5 31t-30.5 74zM1130 477h-1032v78h1032v-78z"/>
<glyph unicode="ø" horiz-adv-x="1099" d="M1051 1004l-119 -127q100 -147 100 -351q0 -236 -129 -393.5t-354 -157.5q-209 0 -338 142l-111 -117l-49 47l117 125q-102 145 -102 354q0 236 129 393.5t354 157.5q211 0 340 -145l112 119zM877 819l-613 -647q109 -129 285 -129q188 0 296.5 141.5t108.5 341.5 q1 174 -77 293zM223 229l613 648q-106 133 -287 133q-188 0 -297 -141.5t-109 -342.5q0 -178 80 -297z"/>
<glyph unicode="ù" horiz-adv-x="1062" d="M948 1053v-1053h-78v225h-4q-41 -117 -145.5 -183.5t-231.5 -66.5q-88 0 -155.5 21.5t-106.5 61.5t-63.5 80t-34.5 97.5t-12 89t-2 76.5v652h78v-666q0 -344 299 -344q176 0 277 122t101 318v570h78zM608 1208h-76l-274 287h104z"/>
<glyph unicode="ú" horiz-adv-x="1062" d="M948 1053v-1053h-78v225h-4q-41 -117 -145.5 -183.5t-231.5 -66.5q-88 0 -155.5 21.5t-106.5 61.5t-63.5 80t-34.5 97.5t-12 89t-2 76.5v652h78v-666q0 -344 299 -344q176 0 277 122t101 318v570h78zM477 1208l246 287h104l-274 -287h-76z"/>
<glyph unicode="û" horiz-adv-x="1062" d="M948 1053v-1053h-78v225h-4q-41 -117 -145.5 -183.5t-231.5 -66.5q-88 0 -155.5 21.5t-106.5 61.5t-63.5 80t-34.5 97.5t-12 89t-2 76.5v652h78v-666q0 -344 299 -344q176 0 277 122t101 318v570h78zM479 1495h82l238 -287h-78l-201 236l-198 -236h-78z"/>
<glyph unicode="ü" horiz-adv-x="1062" d="M948 1053v-1053h-78v225h-4q-41 -117 -145.5 -183.5t-231.5 -66.5q-88 0 -155.5 21.5t-106.5 61.5t-63.5 80t-34.5 97.5t-12 89t-2 76.5v652h78v-666q0 -344 299 -344q176 0 277 122t101 318v570h78zM729 1235h-90v211h90v-211zM406 1235h-91v211h91v-211z"/>
<glyph unicode="ý" horiz-adv-x="909" d="M428 6l-440 1047h92l391 -961l360 961h89l-451 -1166q-74 -182 -123 -217q-39 -31 -91 -39t-155 -8v68q86 0 132.5 13t86.5 54q33 33 109 248zM424 1208l246 287h104l-274 -287h-76z"/>
<glyph unicode="þ" d="M133 -377v1839h78v-651h4q31 100 129 183t254 83q229 0 351 -158.5t122 -394.5q0 -250 -120 -399.5t-353 -149.5q-293 0 -383 244h-4v-596h-78zM598 43q195 0 295 136t100 345q0 201 -99 343.5t-296 142.5t-291 -139.5t-94 -346.5q0 -100 19.5 -182t61.5 -151.5 t120 -108.5t184 -39z"/>
<glyph unicode="ÿ" horiz-adv-x="909" d="M428 6l-440 1047h92l391 -961l360 961h89l-451 -1166q-74 -182 -123 -217q-39 -31 -91 -39t-155 -8v68q86 0 132.5 13t86.5 54q33 33 109 248zM676 1235h-90v211h90v-211zM352 1235h-90v211h90v-211z"/>
<glyph unicode="Œ" horiz-adv-x="2162" d="M1264 1384v-585h774v-78h-774v-643h868v-78h-958v135h-5q-55 -72 -167.5 -121t-264.5 -49q-315 0 -494.5 214t-179.5 546q0 211 78 384t238 280.5t375 107.5q119 0 231.5 -44t188.5 -126v135h954v-78h-864zM1174 260v924q0 37 -38 79t-79 66q-133 90 -295 90 q-287 0 -447.5 -200.5t-160.5 -493.5q0 -295 151.5 -488.5t437.5 -193.5q156 0 258 55q57 29 115 75t58 87z"/>
<glyph unicode="œ" horiz-adv-x="1820" d="M950 584h727q0 178 -93 302t-263 124q-180 0 -277.5 -125t-93.5 -301zM1755 516h-805q-14 -197 81 -335t290 -138q141 0 227 81t121 222h78q-39 -174 -146.5 -272.5t-279.5 -98.5q-166 0 -273.5 81t-136.5 229h-4q-84 -309 -393 -310q-231 0 -339.5 153t-108.5 384 q0 244 114.5 404.5t339.5 160.5q154 0 255.5 -82t133.5 -229h4q84 311 408 311q225 0 335.5 -164t98.5 -397zM516 43q102 0 176 42t111 114.5t53 148.5t16 164q0 137 -30.5 243.5t-113.5 180.5t-210 74q-102 0 -178 -44t-117 -120t-60.5 -159t-19.5 -175q0 -201 94.5 -335 t278.5 -134z"/>
<glyph unicode="Ÿ" horiz-adv-x="1175" d="M588 688l530 774h101l-588 -850v-612h-90v612l-584 850h102zM795 1624h-90v211h90v-211zM471 1624h-90v211h90v-211z"/>
<glyph unicode="ˆ" horiz-adv-x="342" d="M129 1495h82l238 -287h-78l-201 236l-199 -236h-77z"/>
<glyph unicode="˜" horiz-adv-x="342" d="M-66 1247h-59q4 74 47 129.5t111 55.5q49 4 146 -55.5t136 -61.5q39 0 62.5 34.5t30.5 82.5h59q-8 -78 -46 -131.5t-110 -53.5q-45 0 -141 60q-57 35 -88 47q-25 10 -51 10q-79 0 -97 -117z"/>
<glyph unicode=" " horiz-adv-x="970"/>
<glyph unicode=" " horiz-adv-x="1943"/>
<glyph unicode=" " horiz-adv-x="970"/>
<glyph unicode=" " horiz-adv-x="1943"/>
<glyph unicode=" " horiz-adv-x="647"/>
<glyph unicode=" " horiz-adv-x="485"/>
<glyph unicode=" " horiz-adv-x="323"/>
<glyph unicode=" " horiz-adv-x="323"/>
<glyph unicode=" " horiz-adv-x="241"/>
<glyph unicode=" " horiz-adv-x="387"/>
<glyph unicode=" " horiz-adv-x="106"/>
<glyph unicode="‐" horiz-adv-x="720" d="M580 518h-439v78h439v-78z"/>
<glyph unicode="‑" horiz-adv-x="720" d="M580 518h-439v78h439v-78z"/>
<glyph unicode="‒" horiz-adv-x="720" d="M580 518h-439v78h439v-78z"/>
<glyph unicode="–" horiz-adv-x="1024" d="M0 518v78h1024v-78h-1024z"/>
<glyph unicode="—" horiz-adv-x="2048" d="M266 518v78h1516v-78h-1516z"/>
<glyph unicode="‘" horiz-adv-x="417" d="M293 1462v-67q-70 -31 -70 -191h43v-211h-104v211q0 207 131 258z"/>
<glyph unicode="’" horiz-adv-x="417" d="M256 1462v-211q0 -207 -131 -258v68q70 31 70 190h-43v211h104z"/>
<glyph unicode="‚" horiz-adv-x="417" d="M256 211v-211q0 -207 -131 -258v68q70 31 70 190h-43v211h104z"/>
<glyph unicode="“" horiz-adv-x="645" d="M520 1462v-67q-70 -31 -69 -191h43v-211h-105v211q0 207 131 258zM262 1462v-67q-70 -31 -69 -191h43v-211h-105v211q0 207 131 258z"/>
<glyph unicode="”" horiz-adv-x="645" d="M256 1462v-211q0 -207 -131 -258v68q70 31 70 190h-43v211h104zM514 1462v-211q0 -207 -131 -258v68q70 31 70 190h-43v211h104z"/>
<glyph unicode="„" horiz-adv-x="645" d="M256 211v-211q0 -207 -131 -258v68q70 31 70 190h-43v211h104zM514 211v-211q0 -207 -131 -258v68q70 31 70 190h-43v211h104z"/>
<glyph unicode="•" horiz-adv-x="1024" d="M147 731.5q0 151.5 106.5 258t258.5 106.5t259.5 -106.5t107.5 -258t-107.5 -259t-259.5 -107.5t-258.5 107.5t-106.5 259z"/>
<glyph unicode="…" horiz-adv-x="2048" d="M1653 0v211h104v-211h-104zM971 0v211h104v-211h-104zM289 0v211h104v-211h-104z"/>
<glyph unicode=" " horiz-adv-x="387"/>
<glyph unicode="‹" horiz-adv-x="530" d="M371 248l-234 268v82l234 268v-104l-174 -205l174 -209v-100z"/>
<glyph unicode="›" horiz-adv-x="530" d="M160 248v100l174 209l-174 205v104l233 -268v-82z"/>
<glyph unicode=" " horiz-adv-x="485"/>
<glyph unicode="€" d="M1085 1219l-43 -78q-33 111 -131 174q-86 55 -221 55q-195 0 -305 -115q-63 -63 -101 -167.5t-46 -206.5h680l-31 -68h-656q-4 -70 -4 -102.5t4 -94.5h580l-31 -67h-540q18 -193 110 -328q121 -178 348 -178q106 0 197 35q100 41 174 125v-94q-68 -59 -141 -89 q-104 -45 -240 -45q-264 0 -403 201q-109 154 -127 373h-133l30 67h99q-10 104 0 197h-129l30 68h103q8 123 56 243.5t136 196.5q135 117 340 117q162 0 260 -62q94 -59 135 -157z"/>
<glyph unicode="™" horiz-adv-x="2027" d="M1110 1462l311 -708l312 708h120v-844h-65v777h-6l-342 -777h-37l-342 777h-6v-777h-66v844h121zM827 1462v-67h-292v-777h-66v777h-295v67h653z"/>
<glyph unicode="" horiz-adv-x="1055" d="M0 1055h1055v-1055h-1055v1055z"/>
<glyph unicode="ﬁ" horiz-adv-x="796" d="M586 0v1053h78v-1053h-78zM586 1251v211h78v-211h-78zM0 985v68h188v217q0 104 65.5 156.5t166.5 52.5q35 0 92 -11v-67q-57 10 -92 10q-154 0 -154 -147v-211h219v-68h-219v-985h-78v985h-188z"/>
<glyph unicode="ﬂ" horiz-adv-x="796" d="M586 0v1462h78v-1462h-78zM0 985v68h188v217q0 104 65.5 156.5t166.5 52.5q35 0 92 -11v-67q-57 10 -92 10q-154 0 -154 -147v-211h219v-68h-219v-985h-78v985h-188z"/>
<glyph unicode="ﬃ" horiz-adv-x="1331" d="M1198 1251h-78v211h78v-211zM1198 0h-78v1053h78v-1053zM682 985h-188v68h188v217q0 104 65.5 156.5t166.5 52.5q35 0 92 -11v-67q-57 10 -92 10q-154 0 -154 -147v-211h219v-68h-219v-985h-78v985zM188 985h-188v68h188v217q0 104 65.5 156.5t166.5 52.5q35 0 92 -11 v-67q-57 10 -92 10q-154 0 -154 -147v-211h219v-68h-219v-985h-78v985z"/>
<glyph unicode="ﬄ" horiz-adv-x="1331" d="M1120 1462h78v-1462h-78v1462zM682 985h-188v68h188v217q0 104 65.5 156.5t166.5 52.5q35 0 92 -11v-67q-57 10 -92 10q-154 0 -154 -147v-211h219v-68h-219v-985h-78v985zM188 985h-188v68h188v217q0 104 65.5 156.5t166.5 52.5q35 0 92 -11v-67q-57 10 -92 10 q-154 0 -154 -147v-211h219v-68h-219v-985h-78v985z"/>
</font>
</defs>
</svg>
